<svg xmlns="http://www.w3.org/2000/svg" width="31" height="31" viewBox="0 0 31 31"><defs><style>.a{fill:none;}.b{fill:#6c6c6c;}</style></defs><path class="a" d="M0,0H31V31H0Z"/><path class="b" d="M2.05,16.854h7.4A24.272,24.272,0,0,0,13.407,28.88,13.539,13.539,0,0,1,2.05,16.854Zm0-2.708A13.539,13.539,0,0,1,13.407,2.12,24.272,24.272,0,0,0,9.453,14.146Zm26.9,0h-7.4A24.272,24.272,0,0,0,17.592,2.12,13.539,13.539,0,0,1,28.95,14.146Zm0,2.708A13.539,13.539,0,0,1,17.592,28.88a24.272,24.272,0,0,0,3.954-12.026h7.4Zm-16.789,0h6.678A21.571,21.571,0,0,1,15.5,27.136a21.571,21.571,0,0,1-3.339-10.281Zm0-2.708A21.571,21.571,0,0,1,15.5,3.864a21.571,21.571,0,0,1,3.339,10.281Z" transform="translate(0 0)"/></svg>