<svg xmlns="http://www.w3.org/2000/svg" width="32" height="32" viewBox="0 0 32 32"><defs><style>.a{fill:none;}.b{fill:#6c6c6c;}</style></defs><path class="a" d="M0,0H32V32H0Z"/><path class="b" d="M28,30H25V27.238A4.333,4.333,0,0,0,20.5,23.1h-9A4.333,4.333,0,0,0,7,27.238V30H4V27.238c0-3.813,3.358-6.9,7.5-6.9h9c4.142,0,7.5,3.091,7.5,6.9ZM16,17.571c-4.971,0-9-3.71-9-8.286S11.029,1,16,1s9,3.71,9,8.286S20.971,17.571,16,17.571Zm0-2.762a5.777,5.777,0,0,0,6-5.524,5.777,5.777,0,0,0-6-5.524,5.777,5.777,0,0,0-6,5.524A5.777,5.777,0,0,0,16,14.81Z" transform="translate(0)"/></svg>