<svg xmlns="http://www.w3.org/2000/svg" width="14" height="14" viewBox="0 0 14 14"><defs><style>.a{fill:none;}.b{fill:#6c6c6c;}</style></defs><path class="a" d="M0,0H14V14H0Z"/><path class="b" d="M8.418,4.746h3.491A1.1,1.1,0,0,1,13,5.862V7.036a1.138,1.138,0,0,1-.082.425L11.23,11.655a.546.546,0,0,1-.5.345H1.545A.552.552,0,0,1,1,11.442V5.862A.552.552,0,0,1,1.545,5.3h1.9a.542.542,0,0,0,.446-.236L6.865.756A.269.269,0,0,1,7.209.668l.989.506a1.406,1.406,0,0,1,.712,1.592ZM4.273,6.19v4.694H10.36l1.549-3.848V5.862H8.418a1.082,1.082,0,0,1-.861-.431,1.136,1.136,0,0,1-.2-.96l.493-1.98a.281.281,0,0,0-.142-.319l-.361-.184L4.782,5.711A1.66,1.66,0,0,1,4.273,6.19Zm-1.091.23H2.091v4.464H3.182Z" transform="translate(0 0)"/></svg>