<svg xmlns="http://www.w3.org/2000/svg" width="15" height="15" viewBox="0 0 15 15"><defs><style>.a{fill:none;}.b{fill:#6c6c6c;}</style></defs><path class="a" d="M0,0H15V15H0Z"/><path class="b" d="M9.036,5.108h3.782A1.2,1.2,0,0,1,14,6.322V7.6a1.243,1.243,0,0,1-.089.463l-1.829,4.562a.591.591,0,0,1-.547.376H1.591A.6.6,0,0,1,1,12.393V6.322a.6.6,0,0,1,.591-.607H3.648a.586.586,0,0,0,.483-.257L7.353.767a.291.291,0,0,1,.373-.1L8.8,1.221A1.532,1.532,0,0,1,9.57,2.953ZM4.545,6.679v5.107H11.14L12.818,7.6V6.322H9.036A1.171,1.171,0,0,1,8.1,5.853a1.24,1.24,0,0,1-.212-1.045l.534-2.154a.306.306,0,0,0-.154-.347l-.391-.2L5.1,6.158A1.8,1.8,0,0,1,4.545,6.679Zm-1.182.25H2.182v4.857H3.364Z" transform="translate(0 0)"/></svg>